<?xml version="1.0" ?>
<!-- Uploaded to: SVG Repo, www.svgrepo.com, Generator: SVG Repo Mixer Tools -->
<svg width="800px" height="800px" viewBox="0 0 300 300" id="Layer_1" version="1.1" xml:space="preserve" xmlns="http://www.w3.org/2000/svg" xmlns:xlink="http://www.w3.org/1999/xlink">
<style type="text/css">
	.st0{fill:#168C84;}
	.st1{fill:none;stroke:#2D3642;stroke-width:20;stroke-linecap:round;stroke-linejoin:round;}
	.st2{fill:#E0D671;}
	.st3{fill:none;stroke:#2D3642;stroke-width:18.33;stroke-linecap:round;stroke-linejoin:round;}
</style>
<title/>
<g>
<g id="Layer_1-2">
<path class="st0" d="M242,129.6h6c6.6,0,12,5.4,12,12v8l0,0h-30l0,0v-8C230,135,235.4,129.6,242,129.6z"/>
<path class="st0" d="M268,219.6h-6c-6.6,0-12-5.4-12-12v-8l0,0h30l0,0v8C280,214.2,274.6,219.6,268,219.6z"/>
<path class="st0" d="M38,219.6h-6c-6.6,0-12-5.4-12-12v-8l0,0h30l0,0v8C50,214.2,44.6,219.6,38,219.6z"/>
<path class="st0" d="M202,129.6h6c6.6,0,12,5.4,12,12v8l0,0h-30l0,0v-8C190,135,195.4,129.6,202,129.6z"/>
<polyline class="st1" points="130,109.6 290,109.6 290,199.6 10,199.6 10,109.6 50,109.6   "/>
<path class="st2" d="M118.3,157.9c-15.6,15.6-40.9,15.6-56.6,0l56.6-56.6C133.9,116.9,133.9,142.2,118.3,157.9    C118.3,157.9,118.3,157.9,118.3,157.9z"/>
<path class="st3" d="M90,89.6L90,89.6c22.1,0,40,17.9,40,40l0,0c0,22.1-17.9,40-40,40l0,0c-22.1,0-40-17.9-40-40l0,0    C50,107.5,67.9,89.6,90,89.6z"/>
</g>
</g>
</svg>