<?xml version="1.0" encoding="UTF-8"?>
<svg version="1.1" viewBox="0 0 2000 2000" width="500" height="500" xmlns="http://www.w3.org/2000/svg">
<path transform="translate(1120,849)" d="m0 0h64l3 3 12 29 18 42 20 47 6 14 2 8 3-3 16-37 13-31 11-25 14-34 6-12 1-1h60v2l-10 5-3 3-1 4v178l3 5 10 5v2h-75l1-3h37l-12-11-6-8-4-9-1-6-1-153-1-1-11 27-19 45-15 35-19 44-12 28-6 12h-2l-11-25-18-42-19-45-18-42-14-34-2-2v178l3 5 10 5 1 2h-33l3-3 6-3 4-5 1-2 1-14v-117l-1-51-14-7z" fill="#AC908C"/>
<path transform="translate(1618,848)" d="m0 0h59l23 1 17 4 14 7 13 11 7 10 6 12 3 12v22l-3 12-7 14-8 10-8 7-12 7-3 1 1 5 17 28 13 22 7 9 7 5 10 3 1 4-67-1-12-19-15-25-14-24-2-1h-33v41l1 16 4 6 9 4 1 2-53 1h-20l-3-1 1-3h38l-11-8-8-11-4-10-1-4-1-154-4-7-10-5v-2zm-9 3-2 2 5 4 8 6 6 9 4 10 1 8v89l2 2h42l21-1 5-3 6-10 5-17 2-15 1-22-2-25-4-17-5-12-4-6-8-2z" fill="#AC908C"/>
<path transform="translate(572,848)" d="m0 0h30l23 2 15 3 14 5 15 8 10 8 8 8 4 8v11l-6 10-5 4-8 3h-8l-8-3-7-7-3-7v-12l7-15-2-7-7-6-8-4-15-4-8-1h-44l-10 3-9 6-6 9-2 8 1 11 5 10 7 6 15 7 29 12 37 15 23 10 14 9 8 9 8 16 2 7v17l-4 14-9 14-9 8-14 7-12 3-10 1h-35l-25-3-16-5-16-8-11-8-8-7-5-9-1-9 3-9 7-8 7-3h12l8 4 6 7 3 8-1 9-6 14 1 7 5 6 14 7 10 2 10 1h43l12-3 8-6 6-10 1-5v-10l-3-9-7-8-16-8-37-15-36-15-18-8-10-6-9-8-7-11-4-9-2-10v-10l4-16 6-11 9-10 14-9 9-3z" fill="#AC908C"/>
<path transform="translate(1376,848)" d="m0 0h116l72 1 1 3v27l-1 23-3-2-2-14-7-14-7-8-14-8-11-3-6-1h-78v96l2 1 29-1 7-6 4-8h1v34l-3-3-6-9-4-2-9-1-21-1v45l-1 22-3 10-7 10-10 9-3 3 2-1 109-1 12-4 11-8 7-8 5-10 2-8 1-9 3-1 1 30v21l-1 1-100 2-87-2v-3l9-4 3-7 1-154 4-12 7-9 9-8 5-4-40-1z" fill="#AC908C"/>
<path transform="translate(1010,850)" d="m0 0 3 1 13 29 11 26 42 98 11 26 5 10 8 7 10 4v3l-79-1 3-3 4-3h2l-1-9-6-16v-2h-93l-2-1-2 6-6 15-1 7 6 2 4 2-1 3-32-1v-2l10-3 9-8 12-26 11-26 18-43 13-31 5-11 15-35 7-17zm-23 61-12 27-13 31-9 21-10 23 1 4h89l-1-6-30-70-11-27z" fill="#AC908C"/>
<path transform="translate(224,849)" d="m0 0h80l-3 3-5 4-1 7 11 28 11 25 20 47 12 28 2 1 3-10 18-42 8-19 15-35 10-24-2-6-7-6v-1h34l-1 2-12 5-5 4-8 16-11 25-23 54-15 35-26 60-2 3h-2l-11-25-33-77-19-45-16-37-6-10-9-5-6-3z" fill="#AC908C"/>
<path transform="translate(741,848)" d="m0 0h24l10 1v2l-38 1-2 1 12 9 6 8 4 8 2 7 1 94 2 16 5 20 7 16 9 12 8 5 12 2 21-3 15-6 11-7 7-6h2v-2h2l2-4 9-12 7-15 4-15 1-25v-92l-2-5-7-5-6-3v-2l35 1-1 2-10 5-4 5-1 2-1 113-2 13-6 16-9 14-11 12-12 9-16 8-10 3-17 2h-9l-14-2-18-6-14-8-13-12-9-11-8-15-5-17-2-22v-97l-2-5-5-4-8-4v-1z" fill="#AC908C"/>
<path transform="translate(436,848)" d="m0 0 76 1v2l-39 1v2l11 8 6 8 4 8 2 13v143l2 9 5 5 7 3 1 2-47 1h-28v-4h38l-11-8-8-11-4-10-1-5-1-152-3-6v-2l-12-6z" fill="#AC908C"/>
<path transform="translate(146,788)" d="m0 0h430l1 1v7l-11 1h-412v270l-7 1-1-1-1-102v-175z" fill="#AC908C"/>
<path transform="translate(1834,1066)" d="m0 0h6l1 1v252l-1 24-8 1-423-1v-6l424-1v-269z" fill="#AC908C"/>
<path transform="translate(1289,1168)" d="m0 0h26l2 2-6 2h-2v38l43 1v-38l-8-3 1-2h26l4 2-8 3v78l8 3v1l-21 1-9-1v-2l7-1v-37l-42-1-1 5v32l8 3v1h-30l1-2 7-1v-80l-7-1-1-2z" fill="#AC908C"/>
<path transform="translate(1465,1167)" d="m0 0h11l10 2 12 7 7 9 5 12 1 4v22l-4 13-8 11-9 6-8 3-6 1h-14l-13-4-8-6-6-8-5-12-1-5v-21l4-12 5-8 4-5 7-5 9-3zm-1 3-8 3-6 7-4 10-2 12v22l4 16 6 9 6 4 5 1h11l9-4 6-7 3-9 2-12v-18l-2-14-4-10-7-7-8-3z" fill="#AC908C"/>
<path transform="translate(384,1168)" d="m0 0h24l9 4 8 6 7 9 4 10 1 5v20l-3 11-6 10-7 7-10 5-12 2-16-1-9-4-8-7-4-5-5-11-2-8v-18l3-12 6-10 5-5 9-6zm6 2-8 3-6 7-4 10-2 12v22l2 12 5 10 7 6 6 2h12l8-3 7-8 3-7 2-15v-16l-2-16-6-12-8-6-4-1z" fill="#AC908C"/>
<path transform="translate(1572,1168)" d="m0 0h47l12 3 6 4 5 6 4 11v13l-3 10-7 8-7 4-13 2h-27v22l8 3v1h-30l1-2 6-2 1-79-7-1-1-2zm18 3-1 1-1 17v36l3 1h23l8-3 6-5 3-6 1-4v-19l-4-10-6-5-4-2-7-1z" fill="#AC908C"/>
<path transform="translate(1191,1168)" d="m0 0h36l1 20h-3l-7-15-2-1h-23l-7 4-3 8v7l3 7 10 5 19 5 10 5 6 7 2 5v14l-4 8-5 5-6 3-44 1-2-1v-19h3l5 14v2h27l7-2 4-6 1-3v-8l-4-8-8-4-21-5-8-4-7-8-2-6v-13l4-8 7-6 5-2z" fill="#AC908C"/>
<path transform="translate(838,1168)" d="m0 0h11l5 5 17 28 11 19 15 25v2l3 1v-76l-7-1-1-2h20v2l-8 1v79l8 3v1h-24l-4-5-19-32-17-28-8-13-1-1v74l-1 2 7 1 1 2h-19l1-2 7-1v-79l-8-3v-1z" fill="#AD928E"/>
<path transform="translate(513,1168)" d="m0 0 5 3 8 14 17 28 13 22 7 11 1 1 1-76h-6l-2-2h20l-1 2-7 1v79l7 2v2l-19 1-5-2-6-9-16-27-12-20-13-22v-2h-2v78l8 1v2h-19v-2l8-2v-79l-7-1-1-2z" fill="#AC908C"/>
<path transform="translate(1027,1168)" d="m0 0 3 1v18l-4-2-5-12-1-1h-34l-1 38 27 1v-7l1-3h2l1 18-2 4-2-3v-6h-26l-1 4-1 34h36l3-5 4-9 3-1v18h-66v-2l7-1v-80l-7-1v-2z" fill="#AC908C"/>
<path transform="translate(628,1169)" d="m0 0h31l-2 2-6 1-1 78-1 2h35l2-1 5-12 2-3 3 1-1 18h-67l1-2 6-1 1-81h-7z" fill="#AC918D"/>
<path transform="translate(745,1169)" d="m0 0h31v2l-9 1v80l9 1v2h-30l1-2 6-1v-80l-8-2z" fill="#AC908C"/>
<path transform="translate(1562 1e3)" d="m0 0h2l1 30v21l-1 1-100 2-29-1 1-2 71-1 1-1 15-1 12-4 11-8 7-8 5-10 2-8 1-9z" fill="#AC918D"/>
<path transform="translate(869,848)" d="m0 0 35 1-1 2-10 5-4 5-1 2-1 113-2 13-6 16-9 14-11 12-12 9-16 8-10 3-7 1h-10l1-2 19-3 15-6 11-7 7-6h2v-2h2l2-4 9-12 7-15 4-15 1-25v-92l-2-5-7-5-6-3z" fill="#AD918D"/>
<path transform="translate(693,1236)" d="m0 0 3 1-1 18h-28v-1l17-2 2-1 5-12z" fill="#AF9591"/>
<path transform="translate(1436,1052)" d="m0 0h72l-2 2-49 1-22-1z" fill="#D7C9C8"/>
<path transform="translate(837,1251)" d="m0 0 9 3v1h-19l1-2z" fill="#C2AEAB"/>
<path transform="translate(892,1169)" d="m0 0h20v2l-12 1-7-1z" fill="#C4B1AE"/>
<path transform="translate(819,1048)" d="m0 0 3 1-1 2-7 1h-10l1-2z" fill="#B09592"/>
</svg>
